<?xml version="1.0" standalone="no"?>
<!DOCTYPE svg PUBLIC "-//W3C//DTD SVG 1.1//EN" "http://www.w3.org/Graphics/SVG/1.1/DTD/svg11.dtd" >
<svg xmlns="http://www.w3.org/2000/svg" xmlns:xlink="http://www.w3.org/1999/xlink" version="1.1">
<metadata>
Created by FontForge 20170910 at Wed Nov 12 12:40:33 1997
 By Jimmy Wärting
a_AvanteBasicNarrow *Arsenal Company (c)1997* FAX: (095)924-3775; e-Mail: arsenal@itco.msk.su; Phone: (095)924-5811 (Design and Featuring W.Chufarofsky &#38; M.Slutsker)
</metadata>
<defs>
<font id="AAvanteBsNrBold" horiz-adv-x="506" >
  <font-face 
    font-family="a_AvanteBsNr"
    font-weight="700"
    font-stretch="normal"
    units-per-em="1000"
    panose-1="2 11 7 2 2 2 2 2 2 4"
    ascent="800"
    descent="-200"
    x-height="520"
    cap-height="720"
    bbox="-12 -242 999 910"
    underline-thickness="120"
    underline-position="-240"
    unicode-range="U+0020-2122"
  />
<missing-glyph horiz-adv-x="500" 
d="M63 0v910h375v-910h-375zM125 63h250v785h-250v-785z" />
    <glyph glyph-name=".notdef" horiz-adv-x="500" 
d="M63 0v910h375v-910h-375zM125 63h250v785h-250v-785z" />
    <glyph glyph-name=".null" horiz-adv-x="0" 
 />
    <glyph glyph-name="nonmarkingreturn" horiz-adv-x="352" 
 />
    <glyph glyph-name="space" unicode=" " horiz-adv-x="352" 
 />
    <glyph glyph-name="exclam" unicode="!" horiz-adv-x="265" 
d="M202 228h-135v492h135v-492zM197 0h-125v139h125v-139z" />
    <glyph glyph-name="quotedbl" unicode="&#x22;" horiz-adv-x="336" 
d="M306 720l-21 -286h-75l-21 286h117zM146 720l-20 -286h-76l-20 286h116z" />
    <glyph glyph-name="numbersign" unicode="#" 
d="M491 494l-12 -83h-100l-18 -106h102l-13 -84h-101l-31 -188h-85l30 188h-74l-30 -188h-86l31 188h-92l11 84h93l19 106h-96l13 83h94l30 177h86l-31 -177h74l31 177h86l-31 -177h100zM295 411h-75l-19 -106h76z" />
    <glyph glyph-name="dollar" unicode="$" 
d="M433 216q0 -165 -127 -194v-110h-102v107q-68 11 -104 64q-33 49 -33 121h121q0 -83 65 -83q57 0 57 88q0 35 -22 58t-76 56q-59 36 -80 54q-40 35 -51 79q-6 23 -6 54q0 155 129 187v103h102v-103q113 -36 113 -171h-114q0 70 -53 70q-55 0 -55 -68q0 -41 28 -66
q60 -42 120 -85q74 -55 84 -113q4 -22 4 -48z" />
    <glyph glyph-name="percent" unicode="%" horiz-adv-x="705" 
d="M323 565q0 -68 -38 -118q-42 -54 -108 -54q-67 0 -109 54q-38 49 -38 118t38 117q42 53 109 53t108 -53q38 -48 38 -117zM527 720l-265 -720h-82l264 720h83zM676 157q0 -68 -38 -118q-42 -54 -108 -54q-67 0 -109 54q-38 49 -38 118t38 117q42 53 109 53t108 -53
q38 -48 38 -117zM237 565q0 34 -13 59q-17 30 -48 30q-32 0 -48 -30q-13 -24 -13 -59q0 -91 61 -91t61 91zM590 157q0 34 -13 59q-17 30 -48 30q-32 0 -48 -30q-13 -24 -13 -59q0 -91 61 -91t61 91z" />
    <glyph glyph-name="ampersand" unicode="&#x26;" horiz-adv-x="606" 
d="M587 74l-81 -86q-34 36 -88 102q-69 -105 -178 -105q-88 0 -142 59.5t-54 147.5q0 64 34 116q25 39 84 89q-66 66 -66 151q0 79 39 129q44 56 120 56q72 0 113 -49.5t41 -122.5q0 -89 -94 -168q26 -33 80 -99q32 69 46 135h127q-31 -124 -87 -234q34 -42 106 -121z
M298 563q0 23 -10 41q-12 23 -32 23q-21 0 -33 -23q-10 -19 -10 -42q0 -50 38 -92q46 44 46 94zM338 180q-64 69 -108 131q-56 -43 -56 -107q0 -36 20 -64t55 -28q42 0 89 68z" />
    <glyph glyph-name="quotesingle" unicode="'" horiz-adv-x="175" 
d="M145 720l-21 -286h-75l-20 286h116z" />
    <glyph glyph-name="parenleft" unicode="(" horiz-adv-x="336" 
d="M300 -235q-134 25 -192 119q-49 80 -49 225v296q0 298 241 340v-136q-68 -13 -93 -81q-18 -47 -18 -131v-278q0 -164 69 -203q18 -10 42 -17v-134z" />
    <glyph glyph-name="parenright" unicode=")" horiz-adv-x="336" 
d="M276 109q0 -145 -49 -225q-57 -92 -191 -119v134q25 7 42 18q68 43 68 199v287q0 82 -18 127q-25 66 -92 78v137q240 -42 240 -340v-296z" />
    <glyph glyph-name="asterisk" unicode="*" horiz-adv-x="561" 
d="M474 546l-121 -35l78 -99l-78 -58l-72 106l-72 -106l-78 58l78 99l-121 34l31 93l116 -43l-2 125h95l-3 -124l118 42z" />
    <glyph glyph-name="plus" unicode="+" horiz-adv-x="649" 
d="M583 194h-191v-191h-135v191h-191v135h191v191h135v-191h191v-135z" />
    <glyph glyph-name="comma" unicode="," horiz-adv-x="248" 
d="M187 -24q0 -123 -126 -123v77q54 0 54 70h-54v151h126v-175z" />
    <glyph glyph-name="hyphen" unicode="-" horiz-adv-x="237" 
d="M213 211h-189v134h189v-134z" />
    <glyph glyph-name="hyphen" unicode="&#x2010;" horiz-adv-x="237" 
d="M213 211h-189v134h189v-134z" />
    <glyph glyph-name="period" unicode="." horiz-adv-x="248" 
d="M187 0h-126v151h126v-151z" />
    <glyph glyph-name="slash" unicode="/" horiz-adv-x="405" 
d="M372 735l-205 -832h-134l204 832h135z" />
    <glyph glyph-name="zero" unicode="0" 
d="M471 245q0 -112 -52 -181q-58 -78 -166 -78t-167 78q-52 69 -52 181v230q0 112 52 181q59 78 167 78q107 0 166 -78q52 -69 52 -180v-231zM335 470q0 132 -82 132q-83 0 -83 -132v-227q0 -49 17 -82q21 -43 65 -43q83 0 83 124v228z" />
    <glyph glyph-name="one" unicode="1" 
d="M430 0h-348v131h105v465h-84v124h221v-589h106v-131z" />
    <glyph glyph-name="two" unicode="2" 
d="M457 0h-408v121q86 87 171 174q102 113 102 211q0 37 -14 63q-18 33 -52 33q-80 0 -80 -125h-130q0 257 211 257q92 0 147 -67q53 -63 53 -156q0 -45 -8 -82q-14 -65 -92 -160q-40 -49 -129 -139h229v-130z" />
    <glyph glyph-name="three" unicode="3" 
d="M467 238q0 -115 -52 -180q-56 -73 -168 -73q-110 0 -160.5 64.5t-56.5 168.5h138q0 -102 77 -102q44 0 67 39q18 31 18 79q0 132 -89 132q-28 0 -71 -27l-55 84l147 165h-196v132h369v-118l-115 -123q83 -28 118 -92q29 -54 29 -149z" />
    <glyph glyph-name="four" unicode="4" 
d="M476 130h-64v-130h-124v129h-270v115l263 476h130v-475h65v-115zM288 245v257l-139 -257h139z" />
    <glyph glyph-name="five" unicode="5" 
d="M476 246q0 -107 -60 -181q-65 -80 -169 -80q-197 0 -218 202h135q2 -34 24.5 -54.5t57.5 -20.5q93 0 93 128q0 50 -21 83q-25 39 -72 39q-58 0 -82 -66l-112 33l49 391h326v-127h-219l-21 -136q35 27 88 27q95 0 150 -74q51 -66 51 -164z" />
    <glyph glyph-name="six" unicode="6" 
d="M479 246q0 -109 -57 -182q-63 -79 -169 -79q-115 0 -175 80q-53 71 -53 190q0 30 8 67q25 115 196 398h153q-58 -98 -145 -247q31 13 53 13q94 0 145 -76q44 -66 44 -164zM344 243q0 51 -22 84q-25 39 -73 39q-41 0 -67 -41q-24 -36 -24 -79q0 -53 19 -89q23 -46 72 -46
q47 0 73 44q22 37 22 88z" />
    <glyph glyph-name="seven" unicode="7" 
d="M443 592l-210 -592h-137l210 593h-242v127h379v-128z" />
    <glyph glyph-name="eight" unicode="8" 
d="M462 212q0 -103 -52 -163q-56 -64 -157 -64q-100 0 -156 63q-55 60 -55 161q0 129 103 187q-70 66 -70 143q0 89 44 140q46 55 133 55q85 0 132 -53.5t47 -139.5q0 -82 -71 -145q102 -57 102 -184zM314 530q0 31 -14 55q-16 29 -45 29q-31 0 -48 -28q-14 -23 -14 -57
q0 -31 14 -56q18 -30 46 -30q27 0 45 31q16 27 16 56zM328 223q0 38 -18 69q-21 37 -57 37q-35 0 -57 -36q-19 -32 -19 -69q0 -42 17 -73q20 -39 59 -39t59 38q16 30 16 73z" />
    <glyph glyph-name="nine" unicode="9" 
d="M481 465q0 -29 -8 -66q-25 -116 -196 -399h-153q59 99 145 247q-31 -13 -53 -13q-94 0 -145 76q-44 66 -44 164q0 109 57 182q63 79 169 79q115 0 175 -80q53 -71 53 -190zM348 474q0 53 -19 89q-23 46 -72 46q-47 0 -73 -44q-22 -37 -22 -88t22 -84q25 -39 73 -39
q41 0 67 41q24 36 24 79z" />
    <glyph glyph-name="colon" unicode=":" horiz-adv-x="248" 
d="M188 377l-127 -1v144h127v-143zM188 0h-127v144h127v-144z" />
    <glyph glyph-name="semicolon" unicode=";" horiz-adv-x="248" 
d="M188 374h-128v146h128v-146zM188 -29q0 -121 -128 -121v68q34 0 47 26q8 17 8 56h-55v144h128v-173z" />
    <glyph glyph-name="less" unicode="&#x3c;" horiz-adv-x="649" 
d="M568 7l-493 203v123l493 204v-138l-355 -127l355 -127v-138z" />
    <glyph glyph-name="equal" unicode="=" horiz-adv-x="649" 
d="M570 325h-491v127h491v-127zM570 98h-491v126h491v-126z" />
    <glyph glyph-name="greater" unicode="&#x3e;" horiz-adv-x="649" 
d="M574 210l-493 -204v138l355 127l-355 127v139l493 -203v-124z" />
    <glyph glyph-name="question" unicode="?" horiz-adv-x="461" 
d="M424 533q0 -66 -38 -126l-72 -90q-38 -50 -38 -93h-127q0 56 40 117q38 50 77 100q23 30 23 75q0 83 -62 83q-64 0 -64 -103h-132v11q0 95 54 159q57 68 150 68q86 0 137.5 -57t51.5 -144zM276 0h-127v144h127v-144z" />
    <glyph glyph-name="at" unicode="@" horiz-adv-x="876" 
d="M847 411q0 -121 -53 -205q-63 -98 -178 -98q-103 0 -103 75q-45 -75 -124 -75q-160 0 -160 169q0 98 57 168q61 74 157 74q85 0 109 -68l17 50h85l-56 -261q-3 -14 -3 -23q0 -17 11.5 -28.5t28.5 -11.5q72 0 107 84q26 62 26 146q0 118 -94 188q-85 64 -207 64
q-149 0 -254 -101t-105 -250q0 -139 100 -231q96 -88 237 -88q159 0 263 67l24 -64q-50 -34 -134 -54q-74 -18 -144 -18q-187 0 -304 100q-124 106 -124 290q0 183 131 303q128 117 312 117q149 0 258 -84q120 -91 120 -235zM531 355q-11 97 -82 97q-58 0 -97 -59
q-34 -53 -34 -114q0 -43 19 -70q21 -32 62 -32q40 0 69 25t40 65q5 5 13.5 41.5t8.5 46.5h1z" />
    <glyph glyph-name="A" unicode="A" horiz-adv-x="577" 
d="M577 0h-145l-37 135h-213l-38 -135h-144l223 720h131zM363 250l-73 280l-2 -2l-74 -278h149z" />
    <glyph glyph-name="B" unicode="B" horiz-adv-x="501" 
d="M474 216q0 -106 -59.5 -161t-166.5 -55h-194v720h196q91 0 143 -46t52 -136q0 -97 -75 -148q104 -48 104 -174zM313 517q0 74 -71 74h-57v-164h46q38 0 60 25.5t22 64.5zM339 221q0 94 -95 94h-59v-185h59q95 0 95 91z" />
    <glyph glyph-name="C" unicode="C" horiz-adv-x="663" 
d="M633 234q-24 -118 -95 -182q-74 -67 -192 -67q-151 0 -239 116q-79 105 -79 261q0 152 79 256q87 116 234 116q119 0 196 -66.5t96 -184.5h-144q-12 55 -52 87.5t-96 32.5q-85 0 -133 -81q-41 -68 -41 -158q0 -94 40 -164q48 -86 134 -86q129 0 147 120h145z" />
    <glyph glyph-name="D" unicode="D" horiz-adv-x="597" 
d="M568 360q0 -163 -74 -257q-82 -103 -241 -103h-197v720h216q148 0 227 -110q69 -96 69 -250zM430 357q0 235 -174 235h-65v-464h67q171 0 171 229h1z" />
    <glyph glyph-name="E" unicode="E" horiz-adv-x="424" 
d="M386 0h-329v720h329v-129h-194v-160h191v-127h-191v-175h194v-129z" />
    <glyph glyph-name="F" unicode="F" horiz-adv-x="405" 
d="M377 591h-183v-167h175v-127h-174v-297h-138v720h320v-129z" />
    <glyph glyph-name="G" unicode="G" horiz-adv-x="690" 
d="M664 344q0 -157 -80 -254q-85 -105 -239 -105q-155 0 -241 115q-76 103 -76 264q0 156 80 259q88 112 240 112q111 0 188 -60.5t99 -168.5h-150q-19 99 -140 99q-88 0 -137 -79q-42 -66 -42 -160q0 -104 37 -171q46 -84 141 -84q73 0 120.5 44t47.5 116h-169v118h318
q3 -23 3 -45z" />
    <glyph glyph-name="H" unicode="H" horiz-adv-x="590" 
d="M535 0h-135v306h-210v-306h-135v720h135v-287h210v287h135v-720z" />
    <glyph glyph-name="I" unicode="I" horiz-adv-x="250" 
d="M193 0h-136v720h136v-720z" />
    <glyph glyph-name="J" unicode="J" horiz-adv-x="438" 
d="M385 191q0 -206 -190 -206q-187 0 -187 215h133q0 -89 54 -89q53 0 53 89v520h137v-529z" />
    <glyph glyph-name="K" unicode="K" horiz-adv-x="537" 
d="M526 0h-152l-179 358v-358h-135v720h135v-338l183 338h141l-195 -347z" />
    <glyph glyph-name="L" unicode="L" horiz-adv-x="384" 
d="M374 0h-319v720h137v-589h182v-131z" />
    <glyph glyph-name="M" unicode="M" horiz-adv-x="736" 
d="M683 0h-129l5 508h-2l-141 -508h-96l-140 508h-2l4 -508h-129v720h183l132 -507l131 507h184v-720z" />
    <glyph glyph-name="N" unicode="N" horiz-adv-x="605" 
d="M549 0h-122l-245 464l2 -464h-129v720h124l244 -462l-2 462h128v-720z" />
    <glyph glyph-name="O" unicode="O" horiz-adv-x="684" 
d="M656 361q0 -155 -77 -260q-86 -116 -236 -116q-149 0 -236 117q-79 105 -79 259q0 152 79 258q88 116 235 116q148 0 235 -116q79 -105 79 -258zM518 361q0 94 -40 161q-49 81 -136 81q-90 0 -137 -81q-38 -67 -38 -164q0 -95 39 -162q47 -80 136 -80t137 82
q39 67 39 163z" />
    <glyph glyph-name="P" unicode="P" horiz-adv-x="495" 
d="M484 497q0 -174 -118 -229q-35 -16 -86 -19h-89v-249h-137v720h202q107 0 167.5 -58.5t60.5 -164.5zM352 485q0 106 -105 106h-57v-214h61q48 0 74.5 29.5t26.5 78.5z" />
    <glyph glyph-name="Q" unicode="Q" horiz-adv-x="684" 
d="M683 -12q-99 0 -179 43q-71 -47 -162 -47q-152 0 -238 115q-77 104 -77 261q0 156 78 259q86 115 236 115q156 0 239 -113q75 -100 75 -261q0 -134 -60 -234q33 -11 88 -11v-127zM517 360q0 100 -38 164q-47 78 -140 78q-90 0 -136 -81q-37 -65 -37 -162q0 -98 38 -163
q46 -81 137 -81q88 0 136 82q40 69 40 163z" />
    <glyph glyph-name="R" unicode="R" horiz-adv-x="515" 
d="M491 0h-152l-152 280v-280h-133v720h210q105 0 164 -63.5t59 -169.5q0 -176 -158 -217zM358 488q0 107 -114 107h-57v-216h68q103 0 103 109z" />
    <glyph glyph-name="S" unicode="S" horiz-adv-x="451" 
d="M431 206q0 -102 -50 -160q-53 -61 -154 -61q-148 0 -193 120q-13 35 -13 102h147v-28q0 -26 16 -47.5t41 -21.5q69 0 69 97q0 51 -59 93l-116 72q-68 47 -81 107q-6 24 -6 56q0 94 53.5 146.5t147.5 52.5q92 0 142 -54q47 -52 47 -145h-134q0 29 -15.5 52.5t-43.5 23.5
q-30 0 -46 -24q-15 -20 -15 -52q0 -55 68 -99q63 -40 127 -81q68 -58 68 -149z" />
    <glyph glyph-name="T" unicode="T" horiz-adv-x="396" 
d="M389 591h-123v-591h-136v592h-123v128h382v-129z" />
    <glyph glyph-name="U" unicode="U" horiz-adv-x="542" 
d="M491 218q0 -110 -54 -170q-56 -63 -165 -63q-108 0 -164.5 62t-56.5 171v502h134v-502q0 -51 17 -75q20 -28 69 -28t68 28q16 23 16 75v502h136v-502z" />
    <glyph glyph-name="V" unicode="V" horiz-adv-x="555" 
d="M549 720l-197 -720h-148l-198 720h139l132 -533l132 533h140z" />
    <glyph glyph-name="W" unicode="W" horiz-adv-x="775" 
d="M764 720l-158 -720h-128l-91 469l-90 -469h-129l-158 720h137l91 -473l97 473h104l96 -473l91 473h138z" />
    <glyph glyph-name="X" unicode="X" horiz-adv-x="586" 
d="M571 0h-149l-129 260l-131 -260h-147l203 374l-183 346h149l110 -234l108 234h149l-179 -347z" />
    <glyph glyph-name="Y" unicode="Y" horiz-adv-x="498" 
d="M491 720l-173 -447v-273h-137v272l-175 448h144l99 -294l99 294h143z" />
    <glyph glyph-name="Z" unicode="Z" horiz-adv-x="403" 
d="M387 0h-370v129l229 462h-229v129h370v-129l-229 -462h229v-129z" />
    <glyph glyph-name="bracketleft" unicode="[" horiz-adv-x="339" 
d="M291 -241h-222v976h222v-119h-91v-738h91v-119z" />
    <glyph glyph-name="backslash" unicode="\" horiz-adv-x="405" 
d="M372 -97h-134l-205 832h135z" />
    <glyph glyph-name="bracketright" unicode="]" horiz-adv-x="339" 
d="M270 -241h-222v119h91v738h-91v119h222v-976z" />
    <glyph glyph-name="asciicircum" unicode="^" horiz-adv-x="444" 
d="M389 498h-117l-49 112l-50 -112h-118l105 222h124z" />
    <glyph glyph-name="underscore" unicode="_" horiz-adv-x="416" 
d="M422 -197h-428v81h428v-81z" />
    <glyph glyph-name="grave" unicode="`" horiz-adv-x="427" 
d="M307 663l-38 -52l-167 109l74 90z" />
    <glyph glyph-name="a" unicode="a" horiz-adv-x="536" 
d="M490 0h-124v55q-36 -70 -130 -70q-109 0 -164 87q-46 72 -46 188q0 115 47 188q56 87 164 87q92 0 128 -66v51h125v-520zM368 258q0 63 -25 107q-31 54 -90 54q-103 0 -103 -158q0 -162 102 -162q56 0 88 54q28 46 28 105z" />
    <glyph glyph-name="b" unicode="b" horiz-adv-x="536" 
d="M510 257q0 -108 -51 -184q-59 -88 -162 -88q-39 0 -76 19.5t-56 51.5v-56h-119v770h122v-301q47 64 128 64q108 0 165 -88q49 -74 49 -188zM384 257q0 162 -100 162q-60 0 -93 -53q-27 -44 -27 -108q0 -107 74 -148q22 -12 45 -12q101 0 101 159z" />
    <glyph glyph-name="c" unicode="c" horiz-adv-x="504" 
d="M479 181q-17 -90 -74 -141q-59 -55 -148 -55q-111 0 -175 84q-58 77 -58 191q0 116 55 191q62 84 174 84q91 0 151 -53t73 -144h-120q-20 86 -105 86q-57 0 -86 -57q-23 -45 -23 -107q0 -66 23 -109q30 -55 90 -55q80 0 101 85h122z" />
    <glyph glyph-name="d" unicode="d" horiz-adv-x="536" 
d="M490 0h-119v56q-19 -32 -56 -51.5t-76 -19.5q-103 0 -162 88q-51 76 -51 184q0 114 49 188q57 88 165 88q81 0 128 -64v301h122v-770zM372 258q0 64 -27 108q-33 53 -93 53q-100 0 -100 -162q0 -159 101 -159q24 0 46 12q73 41 73 148z" />
    <glyph glyph-name="e" unicode="e" horiz-adv-x="503" 
d="M480 224h-342q0 -58 28 -95q32 -41 88 -41q76 0 93 61h117q-20 -77 -75 -120.5t-135 -43.5q-112 0 -174 84q-56 75 -56 191q0 112 57 189q63 86 171 86q80 0 137 -47q54 -45 77 -124q14 -48 14 -140zM364 312q0 53 -29.5 85t-81.5 32q-49 0 -82 -34t-33 -83h226z" />
    <glyph glyph-name="f" unicode="f" horiz-adv-x="235" 
d="M230 409h-54v-409h-124v409h-45v111h45v93q0 157 156 157h22v-111q-32 0 -43 -15.5t-11 -48.5v-75h54v-111z" />
    <glyph glyph-name="g" unicode="g" horiz-adv-x="536" 
d="M490 14q0 -255 -235 -255q-195 0 -218 173h129q0 -34 26 -52q23 -16 58 -16q80 0 104 66q13 36 13 134q-35 -69 -127 -69q-110 0 -166 83q-48 71 -48 187q0 111 50 185q58 85 164 85q91 0 126 -62v47h124v-506zM367 261q0 60 -26 105q-32 54 -88 54q-53 0 -81 -53
q-23 -43 -23 -102q0 -161 99 -161q56 0 89 53q29 46 29 105z" />
    <glyph glyph-name="h" unicode="h" horiz-adv-x="486" 
d="M441 0h-124v337q0 78 -63 78q-83 0 -83 -118v-297h-125v770h125v-302q33 66 123 66q147 0 147 -182v-352z" />
    <glyph glyph-name="i" unicode="i" horiz-adv-x="219" 
d="M171 633h-124v137h124v-137zM172 0h-125v520h125v-520z" />
    <glyph glyph-name="j" unicode="j" horiz-adv-x="222" 
d="M175 633h-124v137h124v-137zM176 -65q0 -95 -35.5 -128.5t-131.5 -33.5h-21v111h29q34 0 34 67v569h125v-585z" />
    <glyph glyph-name="k" unicode="k" horiz-adv-x="441" 
d="M440 0h-145l-127 255v-255h-123v770h123v-478l125 228h138l-143 -247z" />
    <glyph glyph-name="l" unicode="l" horiz-adv-x="221" 
d="M173 0h-125v770h125v-770z" />
    <glyph glyph-name="m" unicode="m" horiz-adv-x="745" 
d="M700 0h-123v317q0 102 -70 102q-71 0 -71 -118v-301h-123v317q0 102 -68 102q-75 0 -75 -121v-298h-124v520h118v-57q33 71 119 71q88 0 123 -89q17 42 54.5 65.5t83.5 23.5q80 0 121 -59q35 -52 35 -135v-340z" />
    <glyph glyph-name="n" unicode="n" horiz-adv-x="486" 
d="M441 0h-124v337q0 78 -63 78q-83 0 -83 -118v-297h-125v520h120v-55q17 32 55 51q35 18 73 18q147 0 147 -182v-352z" />
    <glyph glyph-name="o" unicode="o" horiz-adv-x="519" 
d="M495 262q0 -113 -60 -192q-66 -85 -176 -85t-175 85q-60 78 -60 191t60 190q65 84 175 84q109 0 175 -84q61 -77 61 -189zM367 260q0 62 -23 105q-28 53 -85 53t-85 -53q-23 -43 -23 -105q0 -60 24 -104q29 -54 84 -54t84 54q24 44 24 104z" />
    <glyph glyph-name="p" unicode="p" horiz-adv-x="536" 
d="M510 261q0 -110 -47 -185q-55 -89 -158 -89q-85 0 -134 65v-277h-125v745h119v-57q45 74 136 74q108 0 163 -88q46 -73 46 -188zM385 264q0 59 -21 102q-26 56 -79 56q-59 0 -91 -51q-26 -43 -26 -106q0 -66 25 -110q31 -54 92 -54q53 0 79 58q21 45 21 105z" />
    <glyph glyph-name="q" unicode="q" horiz-adv-x="536" 
d="M490 -225h-125v277q-49 -65 -134 -65q-103 0 -158 89q-47 75 -47 185q0 115 46 188q55 88 163 88q91 0 136 -74v57h119v-745zM368 265q0 63 -26 106q-32 51 -91 51q-53 0 -79 -56q-21 -43 -21 -102q0 -60 21 -105q26 -58 79 -58q61 0 92 54q25 45 25 110z" />
    <glyph glyph-name="r" unicode="r" horiz-adv-x="284" 
d="M274 399h-27q-76 0 -76 -99v-300h-126v520h118v-56q28 71 93 71h18v-136z" />
    <glyph glyph-name="s" unicode="s" horiz-adv-x="379" 
d="M356 142q0 -75 -46.5 -116t-122.5 -41q-158 0 -166 160h116q0 -59 54 -59q50 0 50 56q0 16 -3 24q-9 24 -64 52q-71 36 -95 58q-49 44 -49 110q0 69 44 109.5t113 40.5q70 0 113.5 -38.5t43.5 -107.5h-114q0 47 -44 47q-40 0 -40 -46q0 -23 18 -40t70 -48t74 -49
q37 -31 44 -64q4 -19 4 -48z" />
    <glyph glyph-name="t" unicode="t" horiz-adv-x="242" 
d="M237 412h-60v-412h-124v412h-48v108h47v172h124v-172h61v-108z" />
    <glyph glyph-name="u" unicode="u" horiz-adv-x="485" 
d="M438 0h-120v55q-15 -32 -52.5 -51t-75.5 -19q-145 0 -145 175v360h124v-341q0 -75 64 -75q81 0 81 110v306h124v-520z" />
    <glyph glyph-name="v" unicode="v" horiz-adv-x="450" 
d="M444 520l-154 -520h-131l-153 520h125l94 -351l95 351h124z" />
    <glyph glyph-name="w" unicode="w" horiz-adv-x="630" 
d="M621 520l-124 -520h-111l-71 322l-71 -322h-109l-126 520h123l63 -309l70 309h100l70 -309l64 309h122z" />
    <glyph glyph-name="x" unicode="x" horiz-adv-x="464" 
d="M456 0h-137l-87 166l-89 -166h-136l156 259l-141 261h135l74 -163l74 163h134l-140 -261z" />
    <glyph glyph-name="y" unicode="y" horiz-adv-x="445" 
d="M441 520l-227 -747h-123l78 247l-163 500h124l99 -319l89 319h123z" />
    <glyph glyph-name="z" unicode="z" horiz-adv-x="343" 
d="M326 0h-310v105l187 311h-187v104h310v-104l-187 -311h187v-105z" />
    <glyph glyph-name="braceleft" unicode="{" horiz-adv-x="424" 
d="M373 -242h-78q-71 0 -105 31t-34 101v189q0 92 -86 92v136q85 0 85 92v189q0 132 141 132h77v-100q-47 0 -64 -9q-26 -13 -26 -55v-174q0 -56 -22 -89t-74 -54q53 -23 74.5 -54.5t21.5 -88.5v-171q0 -45 23 -58q16 -9 67 -9v-100z" />
    <glyph glyph-name="bar" unicode="|" horiz-adv-x="414" 
d="M274 -167h-133v892h133v-892z" />
    <glyph glyph-name="braceright" unicode="}" horiz-adv-x="424" 
d="M354 171q-86 0 -86 -92v-189q0 -70 -34 -101t-105 -31h-78v100q51 0 67 9q23 13 23 58v171q0 57 21.5 88.5t74.5 54.5q-52 21 -74 54t-22 89v174q0 42 -26 55q-17 9 -64 9v100h77q141 0 141 -132v-189q0 -92 85 -92v-136z" />
    <glyph glyph-name="asciitilde" unicode="~" horiz-adv-x="536" 
d="M478 239q-50 -81 -116 -81q-33 0 -95.5 35t-93.5 35q-48 0 -94 -76l-21 129q50 81 116 81q34 0 96 -34.5t93 -34.5q45 0 93 75z" />
    <glyph glyph-name="currency" unicode="&#xa4;" horiz-adv-x="565" 
d="M547 118l-61 -61l-81 81q-56 -38 -121 -38q-69 0 -123 38l-80 -81l-62 61l81 82q-37 51 -37 120t37 122l-82 82l62 60l81 -81q56 38 122 38q69 0 121 -38l81 81l62 -60l-81 -82q37 -53 37 -121q0 -73 -37 -121zM390 321q0 44 -31 75.5t-75 31.5q-45 0 -76.5 -31
t-31.5 -76q0 -44 31.5 -75.5t75.5 -31.5t75.5 31.5t31.5 75.5z" />
    <glyph glyph-name="brokenbar" unicode="&#xa6;" horiz-adv-x="414" 
d="M274 363l-133 -1v363h133v-362zM274 -167h-133v363h133v-363z" />
    <glyph glyph-name="section" unicode="&#xa7;" horiz-adv-x="501" 
d="M463 248q0 -87 -76 -151q32 -60 32 -112q0 -80 -51 -128.5t-131 -48.5q-79 0 -130 49t-51 128h121q8 -68 65 -68q58 0 58 68q0 46 -51 76l-134 79q-52 30 -69 75q-14 34 -14 100q0 82 75 153q-32 53 -32 109q0 79 48 128t127 49q78 0 127.5 -48.5t49.5 -126.5h-120
q-2 27 -18.5 46.5t-42.5 19.5q-51 0 -51 -67q0 -46 49 -75l134 -78q52 -30 70 -74q15 -36 15 -103zM354 241q0 61 -46 89l-127 77q-41 -31 -41 -81q0 -58 46 -87l125 -78q42 32 42 80h1z" />
    <glyph glyph-name="copyright" unicode="&#xa9;" horiz-adv-x="795" 
d="M767 360q0 -152 -109 -261.5t-261 -109.5q-151 0 -260.5 110t-109.5 261q0 152 109 261t261 109q154 0 262 -108t108 -262zM698 360q0 128 -87 216t-214 88q-125 0 -213 -89.5t-88 -214.5t88.5 -215t212.5 -90q126 0 213.5 89.5t87.5 215.5zM588 311q-10 -76 -62 -121.5
t-128 -45.5q-91 0 -148 65q-54 62 -54 154q0 96 56 157t151 61q69 0 121.5 -41.5t58.5 -108.5h-95q-9 69 -88 69q-103 0 -103 -139q0 -55 25 -92q29 -43 82 -43q71 0 88 85h96z" />
    <glyph glyph-name="guillemotleft" unicode="&#xab;" horiz-adv-x="412" 
d="M375 134h-105l-75 163l75 165h105l-75 -164zM202 134h-104l-76 163l75 165h105l-75 -164z" />
    <glyph glyph-name="logicalnot" unicode="&#xac;" horiz-adv-x="649" 
d="M577 153l-133 -1v152h-370v135h503v-286z" />
    <glyph glyph-name="registered" unicode="&#xae;" horiz-adv-x="795" 
d="M767 360q0 -153 -108.5 -262t-261.5 -109q-151 0 -260.5 110t-109.5 261q0 153 108.5 261.5t261.5 108.5q154 0 262 -108t108 -262zM698 359q0 128 -87 216.5t-214 88.5q-125 0 -213 -89.5t-88 -214.5t88 -215t212 -90q126 0 214 89t88 215zM569 163h-105l-99 143v-143
h-90v396h144q65 0 104.5 -35t39.5 -99q0 -48 -28.5 -82t-75.5 -41zM475 420q0 60 -60 60h-52v-117h39q73 0 73 57z" />
    <glyph glyph-name="degree" unicode="&#xb0;" horiz-adv-x="316" 
d="M277 584q0 -59 -29 -96q-32 -41 -89 -41q-56 0 -89 41q-30 37 -30 95t31 97.5t88 39.5q56 0 89 -41q29 -37 29 -95zM215 583q0 80 -56 80q-57 0 -57 -79q0 -80 57 -80q56 0 56 79z" />
    <glyph glyph-name="plusminus" unicode="&#xb1;" horiz-adv-x="649" 
d="M571 282h-180v-119h-134v119h-180v119h180v119h134v-119h180v-119zM571 0h-494v121h494v-121z" />
    <glyph glyph-name="paragraph" unicode="&#xb6;" horiz-adv-x="558" 
d="M510 634h-48v-708h-94v708h-84v-708h-95v429q-80 0 -130.5 49.5t-50.5 128.5q0 92 52.5 141t145.5 49h304v-89z" />
    <glyph glyph-name="guillemotright" unicode="&#xbb;" horiz-adv-x="412" 
d="M390 298l-75 -164h-105l74 163l-74 165h105zM217 298l-74 -164h-106l74 163l-74 165h105z" />
    <glyph glyph-name="mu" unicode="&#xb5;" horiz-adv-x="606" 
d="M605 538l-71 -547h-148l6 58q-42 -58 -109 -58q-60 0 -84 56l-31 -238h-152l96 729h152l-40 -305q-3 -23 -3 -36q0 -81 80 -81q50 0 80 39q26 34 33 87l39 296h152z" />
    <glyph glyph-name="mu" unicode="&#x3bc;" horiz-adv-x="606" 
d="M605 538l-71 -547h-148l6 58q-42 -58 -109 -58q-60 0 -84 56l-31 -238h-152l96 729h152l-40 -305q-3 -23 -3 -36q0 -81 80 -81q50 0 80 39q26 34 33 87l39 296h152z" />
    <glyph glyph-name="afii10023" unicode="&#x401;" horiz-adv-x="424" 
d="M364 794h-117v116h117v-116zM184 794h-115v116h115v-116zM386 0h-329v720h329v-129h-194v-160h187v-128h-187v-173h194v-130z" />
    <glyph glyph-name="afii10017" unicode="&#x410;" horiz-adv-x="577" 
d="M577 0h-145l-37 135h-213l-38 -135h-144l223 720h131zM363 250l-73 280l-2 -2l-74 -278h149z" />
    <glyph glyph-name="afii10018" unicode="&#x411;" horiz-adv-x="472" 
d="M447 220q0 -103 -56 -161.5t-158 -58.5h-180v720h348v-129h-214v-147h38q109 0 165.5 -57.5t56.5 -166.5zM314 219q0 105 -94 105h-33v-198h33q43 0 68.5 25t25.5 68z" />
    <glyph glyph-name="afii10019" unicode="&#x412;" horiz-adv-x="501" 
d="M474 216q0 -106 -59.5 -161t-166.5 -55h-194v720h196q91 0 143 -46t52 -136q0 -97 -75 -148q104 -48 104 -174zM313 517q0 74 -71 74h-57v-164h46q38 0 60 25.5t22 64.5zM339 221q0 94 -95 94h-59v-185h59q95 0 95 91z" />
    <glyph glyph-name="afii10020" unicode="&#x413;" horiz-adv-x="379" 
d="M369 591h-181v-591h-136v720h317v-129z" />
    <glyph glyph-name="afii10021" unicode="&#x414;" horiz-adv-x="581" 
d="M577 -144h-132v144h-309v-144h-132v271h49l158 593h158l158 -593h50v-271zM392 127l-101 410l-102 -410h203z" />
    <glyph glyph-name="afii10022" unicode="&#x415;" horiz-adv-x="424" 
d="M386 0h-329v720h329v-129h-194v-160h191v-127h-191v-175h194v-129z" />
    <glyph glyph-name="afii10024" unicode="&#x416;" horiz-adv-x="783" 
d="M777 0h-159l-160 348v-348h-133v348l-160 -348h-159l196 365l-192 355h149l166 -343v343h133v-343l166 343h149l-192 -355z" />
    <glyph glyph-name="afii10025" unicode="&#x417;" horiz-adv-x="486" 
d="M456 204q0 -99 -57.5 -159t-155.5 -60q-100 0 -158 56.5t-58 156.5h139q0 -87 77 -87q76 0 76 106q0 96 -90 96h-53v114h42q39 0 61 27.5t22 67.5q0 84 -61 84t-61 -77h-136q0 90 54 148t144 58q88 0 142.5 -50.5t54.5 -138.5q0 -108 -86 -158q59 -25 83 -73
q21 -41 21 -111z" />
    <glyph glyph-name="afii10026" unicode="&#x418;" horiz-adv-x="609" 
d="M554 0h-132v454l-250 -454h-117v720h134v-449l250 449h115v-720z" />
    <glyph glyph-name="afii10027" unicode="&#x419;" horiz-adv-x="609" 
d="M449 901q0 -65 -38.5 -105t-103.5 -40t-103.5 40t-38.5 105h90q0 -68 52 -68t52 68h90zM554 0h-132v454l-250 -454h-117v720h134v-449l250 449h115v-720z" />
    <glyph glyph-name="afii10028" unicode="&#x41a;" horiz-adv-x="537" 
d="M526 0h-152l-179 358v-358h-135v720h135v-338l183 338h141l-195 -347z" />
    <glyph glyph-name="afii10029" unicode="&#x41b;" horiz-adv-x="545" 
d="M542 0h-138l-131 530l-130 -530h-140l190 720h158z" />
    <glyph glyph-name="afii10030" unicode="&#x41c;" horiz-adv-x="736" 
d="M683 0h-129l5 508h-2l-141 -508h-96l-140 508h-2l4 -508h-129v720h183l132 -507l131 507h184v-720z" />
    <glyph glyph-name="afii10031" unicode="&#x41d;" horiz-adv-x="590" 
d="M535 0h-135v306h-210v-306h-135v720h135v-287h210v287h135v-720z" />
    <glyph glyph-name="afii10032" unicode="&#x41e;" horiz-adv-x="684" 
d="M656 361q0 -155 -77 -260q-86 -116 -236 -116q-149 0 -236 117q-79 105 -79 259q0 152 79 258q88 116 235 116q148 0 235 -116q79 -105 79 -258zM518 361q0 94 -40 161q-49 81 -136 81q-90 0 -137 -81q-38 -67 -38 -164q0 -95 39 -162q47 -80 136 -80t137 82
q39 67 39 163z" />
    <glyph glyph-name="afii10033" unicode="&#x41f;" horiz-adv-x="578" 
d="M523 0h-135v591h-198v-591h-135v720h468v-720z" />
    <glyph glyph-name="afii10034" unicode="&#x420;" horiz-adv-x="495" 
d="M484 497q0 -174 -118 -229q-35 -16 -86 -19h-89v-249h-137v720h202q107 0 167.5 -58.5t60.5 -164.5zM352 485q0 106 -105 106h-57v-214h61q48 0 74.5 29.5t26.5 78.5z" />
    <glyph glyph-name="afii10035" unicode="&#x421;" horiz-adv-x="663" 
d="M633 234q-24 -118 -95 -182q-74 -67 -192 -67q-151 0 -239 116q-79 105 -79 261q0 152 79 256q87 116 234 116q119 0 196 -66.5t96 -184.5h-144q-12 55 -52 87.5t-96 32.5q-85 0 -133 -81q-41 -68 -41 -158q0 -94 40 -164q48 -86 134 -86q129 0 147 120h145z" />
    <glyph glyph-name="afii10036" unicode="&#x422;" horiz-adv-x="396" 
d="M389 591h-123v-591h-136v592h-123v128h382v-129z" />
    <glyph glyph-name="afii10037" unicode="&#x423;" horiz-adv-x="538" 
d="M534 720l-241 -720h-138l63 185l-202 535h140l127 -341l111 341h140z" />
    <glyph glyph-name="afii10038" unicode="&#x424;" horiz-adv-x="699" 
d="M674 383q0 -114 -46 -181q-54 -78 -163 -78h-49v-124h-133v124h-50q-208 0 -208 258q0 166 115 220q30 14 70 17q11 1 73 1v100h132v-100q62 0 73 -1q41 -3 71 -17q115 -54 115 -219zM542 371q0 53 -24 86q-27 36 -78 36h-26v-243h27q51 0 77 36q24 32 24 85zM285 250
v243h-27q-50 0 -75.5 -34.5t-25.5 -86.5q0 -53 23 -86q27 -36 78 -36h27z" />
    <glyph glyph-name="afii10039" unicode="&#x425;" horiz-adv-x="586" 
d="M571 0h-149l-129 260l-131 -260h-147l203 374l-183 346h149l110 -234l108 234h149l-179 -347z" />
    <glyph glyph-name="afii10040" unicode="&#x426;" horiz-adv-x="585" 
d="M583 -144h-124v144h-402v720h135v-593h198v593h134v-593h59v-271z" />
    <glyph glyph-name="afii10041" unicode="&#x427;" horiz-adv-x="515" 
d="M461 0h-135v270q-61 -17 -101 -17q-194 0 -194 228v239h133v-229q0 -111 77 -111q38 0 84 17v323h136v-720z" />
    <glyph glyph-name="afii10042" unicode="&#x428;" horiz-adv-x="811" 
d="M756 0h-701v720h135v-593h153v593h124v-593h153v593h136v-720z" />
    <glyph glyph-name="afii10043" unicode="&#x429;" horiz-adv-x="816" 
d="M814 -144h-127v144h-632v720h135v-593h153v593h124v-593h153v593h135v-593h59v-271z" />
    <glyph glyph-name="afii10044" unicode="&#x42a;" horiz-adv-x="543" 
d="M518 220q0 -103 -59 -161.5t-162 -58.5h-178v592h-109v128h243v-273h44q106 0 163.5 -60.5t57.5 -166.5zM387 219q0 105 -96 105h-38v-197h38q96 0 96 92z" />
    <glyph glyph-name="afii10045" unicode="&#x42b;" horiz-adv-x="688" 
d="M633 0h-135v720h135v-720zM452 220q0 -102 -60.5 -161t-162.5 -59h-174v720h135v-273h39q105 0 164 -61t59 -166zM320 219q0 105 -97 105h-33v-197h32q98 0 98 92z" />
    <glyph glyph-name="afii10046" unicode="&#x42c;" horiz-adv-x="478" 
d="M454 220q0 -101 -59.5 -160.5t-160.5 -59.5h-180v720h135v-273h45q104 0 162 -61.5t58 -165.5zM324 219q0 48 -25 76.5t-72 28.5h-38v-197h38q96 0 96 93z" />
    <glyph glyph-name="afii10047" unicode="&#x42d;" horiz-adv-x="655" 
d="M623 363q0 -168 -70 -266q-81 -112 -242 -112q-103 0 -177 58.5t-98 158.5h149q11 -43 47 -67t82 -24q159 0 168 189h-210v123h210q-7 186 -167 186q-45 0 -81.5 -25t-47.5 -67h-150q24 101 100 159.5t180 58.5q153 0 235 -113q72 -100 72 -259z" />
    <glyph glyph-name="afii10048" unicode="&#x42e;" horiz-adv-x="886" 
d="M859 361q0 -150 -74 -256q-83 -120 -227 -120q-129 0 -210 98q-69 85 -87 221h-71v-304h-135v720h135v-287h72q19 131 90 211q80 91 206 91q143 0 227 -119q74 -106 74 -255zM722 361q0 95 -36 161q-45 84 -131 84q-85 0 -128 -86q-34 -68 -34 -162q0 -93 35 -160
q45 -84 129 -84q86 0 130 85q35 67 35 162z" />
    <glyph glyph-name="afii10049" unicode="&#x42f;" horiz-adv-x="522" 
d="M468 0h-135v273l-148 -273h-156l162 266q-76 17 -117 77q-39 56 -39 137q0 107 64.5 173.5t170.5 66.5h198v-720zM337 371v221h-60q-53 0 -82 -31t-29 -85q0 -105 111 -105h60z" />
    <glyph glyph-name="afii10065" unicode="&#x430;" horiz-adv-x="536" 
d="M490 0h-124v55q-36 -70 -130 -70q-109 0 -164 87q-46 72 -46 188q0 115 47 188q56 87 164 87q92 0 128 -66v51h125v-520zM368 258q0 63 -25 107q-31 54 -90 54q-103 0 -103 -158q0 -162 102 -162q56 0 88 54q28 46 28 105z" />
    <glyph glyph-name="afii10066" unicode="&#x431;" 
d="M484 251q0 -115 -56 -187q-61 -79 -173 -79q-115 0 -173 87q-51 75 -51 195v114q0 164 52 248q66 104 220 104h155v-102h-162q-84 0 -118 -54t-34 -139q19 35 60 54q38 18 81 18q101 0 154 -82q45 -70 45 -177zM363 247q0 62 -22 102q-28 50 -85 50q-51 0 -81 -53
q-25 -44 -25 -99q0 -152 104 -152q54 0 84 51q25 43 25 101z" />
    <glyph glyph-name="afii10067" unicode="&#x432;" horiz-adv-x="446" 
d="M416 145q0 -145 -177 -145h-192v520h190q157 0 157 -133q0 -73 -61 -109q83 -41 83 -133zM271 371q0 59 -58 59h-44v-124h43q59 0 59 65zM285 153q0 72 -66 72h-50v-130h57q59 0 59 58z" />
    <glyph glyph-name="afii10068" unicode="&#x433;" horiz-adv-x="321" 
d="M310 415h-138v-415h-126v520h264v-105z" />
    <glyph glyph-name="afii10069" unicode="&#x434;" horiz-adv-x="462" 
d="M459 -114h-103v114h-250v-114h-103v216h47l111 418h138l112 -417h48v-217zM294 103l-64 263l-63 -263h127z" />
    <glyph glyph-name="afii10070" unicode="&#x435;" horiz-adv-x="503" 
d="M480 224h-342q0 -58 28 -95q32 -41 88 -41q76 0 93 61h117q-20 -77 -75 -120.5t-135 -43.5q-112 0 -174 84q-56 75 -56 191q0 112 57 189q63 86 171 86q80 0 137 -47q54 -45 77 -124q14 -48 14 -140zM364 312q0 53 -29.5 85t-81.5 32q-49 0 -82 -34t-33 -83h226z" />
    <glyph glyph-name="afii10072" unicode="&#x436;" horiz-adv-x="656" 
d="M655 0h-140l-127 264v-264h-120v264l-126 -264h-141l148 265l-143 255h131l131 -250v250h120v-250l131 250h132l-143 -254z" />
    <glyph glyph-name="afii10073" unicode="&#x437;" horiz-adv-x="432" 
d="M403 144q0 -79 -61 -122q-53 -37 -135 -37q-80 0 -133 45q-56 47 -56 126h117q0 -66 72 -66q77 0 77 62q0 46 -35 62q-22 9 -76 9v85q45 0 67 9q32 15 32 54q0 65 -59 65q-60 0 -60 -57h-115q0 75 50 117q47 39 124 39q175 0 175 -147q0 -78 -63 -111q79 -33 79 -133z
" />
    <glyph glyph-name="afii10074" unicode="&#x438;" horiz-adv-x="500" 
d="M454 0h-125v312l-169 -312h-114v520h124v-301l169 301h115v-520z" />
    <glyph glyph-name="afii10075" unicode="&#x439;" horiz-adv-x="500" 
d="M381 700q0 -61 -35 -99t-95 -38t-94.5 38t-34.5 99h74q0 -72 55 -72q56 0 56 72h74zM454 0h-125v312l-169 -312h-114v520h124v-301l169 301h115v-520z" />
    <glyph glyph-name="afii10076" unicode="&#x43a;" horiz-adv-x="444" 
d="M440 0h-141l-130 267v-267h-122v520h122v-243l134 243h130l-145 -248z" />
    <glyph glyph-name="afii10077" unicode="&#x43b;" horiz-adv-x="432" 
d="M425 0h-121l-89 357l-89 -357h-119l144 520h127z" />
    <glyph glyph-name="afii10078" unicode="&#x43c;" horiz-adv-x="614" 
d="M568 0h-121l4 321l-101 -321h-83l-104 321l5 -321h-122v520h163l98 -343l99 343h162v-520z" />
    <glyph glyph-name="afii10079" unicode="&#x43d;" horiz-adv-x="485" 
d="M439 0h-124v213h-145v-213h-124v520h124v-203h145v203h124v-520z" />
    <glyph glyph-name="afii10080" unicode="&#x43e;" horiz-adv-x="519" 
d="M495 262q0 -113 -60 -192q-66 -85 -176 -85t-175 85q-60 78 -60 191t60 190q65 84 175 84q109 0 175 -84q61 -77 61 -189zM367 260q0 62 -23 105q-28 53 -85 53t-85 -53q-23 -43 -23 -105q0 -60 24 -104q29 -54 84 -54t84 54q24 44 24 104z" />
    <glyph glyph-name="afii10081" unicode="&#x43f;" horiz-adv-x="484" 
d="M438 0h-125v412h-142v-412h-125v520h392v-520z" />
    <glyph glyph-name="afii10082" unicode="&#x440;" horiz-adv-x="536" 
d="M510 261q0 -110 -47 -185q-55 -89 -158 -89q-85 0 -134 65v-277h-125v745h119v-57q45 74 136 74q108 0 163 -88q46 -73 46 -188zM385 264q0 59 -21 102q-26 56 -79 56q-59 0 -91 -51q-26 -43 -26 -106q0 -66 25 -110q31 -54 92 -54q53 0 79 58q21 45 21 105z" />
    <glyph glyph-name="afii10083" unicode="&#x441;" horiz-adv-x="504" 
d="M479 181q-17 -90 -74 -141q-59 -55 -148 -55q-111 0 -175 84q-58 77 -58 191q0 116 55 191q62 84 174 84q91 0 151 -53t73 -144h-120q-20 86 -105 86q-57 0 -86 -57q-23 -45 -23 -107q0 -66 23 -109q30 -55 90 -55q80 0 101 85h122z" />
    <glyph glyph-name="afii10084" unicode="&#x442;" horiz-adv-x="359" 
d="M348 415h-106v-415h-125v414h-105v106h336v-105z" />
    <glyph glyph-name="afii10085" unicode="&#x443;" horiz-adv-x="445" 
d="M441 520l-227 -747h-123l78 247l-163 500h124l99 -319l89 319h123z" />
    <glyph glyph-name="afii10086" unicode="&#x444;" horiz-adv-x="769" 
d="M745 261q0 -106 -47 -183q-55 -91 -154 -91q-60 0 -98 33v-244h-124v244q-38 -33 -96 -33q-100 0 -155 90q-47 76 -47 183q0 108 44 183q53 90 153 90q64 0 101 -37v276h125v-276q41 37 101 37q103 0 155 -89q42 -72 42 -183zM622 260q0 57 -19 102q-24 59 -73 59
q-52 0 -83 -53v-217q34 -52 77 -52q53 0 79 57q19 43 19 104zM322 150v218q-31 53 -83 53q-48 0 -73 -59q-19 -45 -19 -101q0 -59 20 -103q26 -59 77 -59q42 0 78 51z" />
    <glyph glyph-name="afii10087" unicode="&#x445;" horiz-adv-x="464" 
d="M456 0h-137l-87 166l-89 -166h-136l156 259l-141 261h135l74 -163l74 163h134l-140 -261z" />
    <glyph glyph-name="afii10088" unicode="&#x446;" horiz-adv-x="488" 
d="M486 -114h-103v114h-335v520h124v-418h142v418h123v-417h49v-217z" />
    <glyph glyph-name="afii10089" unicode="&#x447;" horiz-adv-x="450" 
d="M402 0h-124v217q-46 -30 -115 -30q-66 0 -99 40t-33 107v186h121v-157q0 -73 49 -73q38 0 77 25v205h124v-520z" />
    <glyph glyph-name="afii10090" unicode="&#x448;" horiz-adv-x="690" 
d="M642 0h-594v520h122v-416h120v416h109v-416h120v416h123v-520z" />
    <glyph glyph-name="afii10091" unicode="&#x449;" horiz-adv-x="691" 
d="M689 -114h-106v114h-533v520h121v-417h120v417h110v-417h120v417h121v-417h47v-217z" />
    <glyph glyph-name="afii10092" unicode="&#x44a;" horiz-adv-x="487" 
d="M462 156q0 -156 -180 -156h-179v416h-93v104h216v-200q95 0 126 -9q110 -32 110 -155zM335 158q0 67 -64 67h-45v-130h52q57 0 57 63z" />
    <glyph glyph-name="afii10093" unicode="&#x44b;" horiz-adv-x="612" 
d="M565 0h-125v520h125v-520zM403 156q0 -77 -54 -119q-48 -37 -128 -37h-175v520h124v-200h53q79 0 128 -42q52 -45 52 -122zM274 158q0 67 -64 67h-40v-130h39q29 0 47 17t18 46z" />
    <glyph glyph-name="afii10094" unicode="&#x44c;" horiz-adv-x="434" 
d="M410 156q0 -80 -52 -120q-47 -36 -129 -36h-182v520h124v-200h55q184 0 184 -164zM283 158q0 67 -65 67h-47v-130h50q62 0 62 63z" />
    <glyph glyph-name="afii10095" unicode="&#x44d;" horiz-adv-x="501" 
d="M477 260q0 -117 -56 -192q-63 -83 -176 -83q-88 0 -144.5 45.5t-71.5 131.5h124q13 -68 91 -68q104 0 111 117h-128v103h127q-4 46 -32 78.5t-72 32.5q-74 0 -94 -65h-126q19 81 76.5 128t140.5 47q113 0 175 -84q55 -74 55 -191z" />
    <glyph glyph-name="afii10096" unicode="&#x44e;" horiz-adv-x="690" 
d="M665 262q0 -114 -55 -190q-62 -86 -171 -86q-99 0 -158 69q-54 62 -62 164h-50v-219h-125v520h125v-206h49q13 98 66 157q58 65 153 65q111 0 173 -84q55 -75 55 -190zM541 260q0 62 -20 104q-27 56 -82 56q-56 0 -83 -55q-20 -42 -20 -105q0 -158 102 -158q55 0 82 54
q21 42 21 104z" />
    <glyph glyph-name="afii10097" unicode="&#x44f;" horiz-adv-x="442" 
d="M394 0h-123v212l-121 -212h-135l130 204q-116 27 -116 153q0 77 51 121q48 42 126 42h188v-520zM271 281v138h-50q-64 0 -64 -65q0 -73 67 -73h47z" />
    <glyph glyph-name="afii10071" unicode="&#x451;" horiz-adv-x="500" 
d="M396 604h-112v113h112v-113zM218 604h-110v113h110v-113zM478 248q0 -5 -11 -11.5t-12 -12.5h-318q0 -59 28 -95q30 -41 87 -41q73 0 93 62h117q-20 -78 -75 -121.5t-135 -43.5q-112 0 -174 84q-56 75 -56 191q0 112 57 189q63 86 171 86v1q112 0 174 -91q54 -80 54 -197
zM362 312q-2 28 -10 52q-10 31 -38.5 48.5t-62.5 17.5q-98 0 -115 -118h226z" />
    <glyph glyph-name="endash" unicode="&#x2013;" horiz-adv-x="409" 
d="M416 223h-423v127h423v-127z" />
    <glyph glyph-name="emdash" unicode="&#x2014;" horiz-adv-x="809" 
d="M814 223h-819v127h819v-127z" />
    <glyph glyph-name="quoteleft" unicode="&#x2018;" horiz-adv-x="248" 
d="M187 437h-126v175q0 123 126 123v-77q-54 0 -54 -70h54v-151z" />
    <glyph glyph-name="quoteright" unicode="&#x2019;" horiz-adv-x="248" 
d="M187 545q0 -123 -126 -123v77q54 0 54 70h-54v151h126v-175z" />
    <glyph glyph-name="quotesinglbase" unicode="&#x201a;" horiz-adv-x="248" 
d="M187 -24q0 -123 -126 -123v77q54 0 54 70h-54v151h126v-175z" />
    <glyph glyph-name="quotedblleft" unicode="&#x201c;" horiz-adv-x="412" 
d="M360 437h-126v175q0 123 126 123v-77q-54 0 -54 -70h54v-151zM180 437h-126v175q0 123 126 123v-77q-54 0 -54 -70h54v-151z" />
    <glyph glyph-name="quotedblright" unicode="&#x201d;" horiz-adv-x="412" 
d="M360 545q0 -123 -126 -123v77q54 0 54 70h-54v151h126v-175zM180 545q0 -123 -126 -123v77q54 0 54 70h-54v151h126v-175z" />
    <glyph glyph-name="quotedblbase" unicode="&#x201e;" horiz-adv-x="412" 
d="M360 -24q0 -123 -126 -123v77q54 0 54 70h-54v151h126v-175zM180 -24q0 -123 -126 -123v77q54 0 54 70h-54v151h126v-175z" />
    <glyph glyph-name="dagger" unicode="&#x2020;" horiz-adv-x="511" 
d="M445 433h-131v-564h-118v564h-131v107h130v181h119v-181h131v-107z" />
    <glyph glyph-name="bullet" unicode="&#x2022;" horiz-adv-x="500" 
d="M391 369q0 -59 -41 -100t-100 -41q-60 0 -101 41t-41 100q0 60 41 100t101 40t100.5 -40t40.5 -100z" />
    <glyph glyph-name="ellipsis" unicode="&#x2026;" horiz-adv-x="799" 
d="M727 0h-123v151h123v-151zM461 0h-123v151h123v-151zM195 0h-123v151h123v-151z" />
    <glyph glyph-name="perthousand" unicode="&#x2030;" horiz-adv-x="1028" 
d="M999 157q0 -71 -36 -119q-40 -53 -108 -53q-70 0 -110 53q-36 47 -36 119q0 70 37 118q40 52 109 52q68 0 108 -52q36 -48 36 -118zM317 565q0 -69 -37 -117q-41 -53 -108 -53q-66 0 -107 53q-37 48 -37 116q0 70 36 118q40 53 108 53q69 0 109 -52q36 -47 36 -118z
M520 724l-260 -728h-83l259 728h84zM672 157q0 -71 -36 -119q-40 -53 -109 -53q-70 0 -110 53q-36 47 -36 119q0 70 37 118q41 52 109 52q67 0 108 -53q37 -48 37 -117zM915 157q0 30 -16 57q-18 33 -45 33q-30 0 -47 -31q-15 -27 -15 -59t14 -60q18 -33 47 -33t47 33
q15 28 15 60zM233 564q0 33 -14 59q-17 33 -47 33t-47 -32q-14 -26 -14 -59q0 -32 14 -58q17 -32 46 -32q28 0 47 31q15 27 15 58zM588 157q0 30 -16 58q-18 32 -46 32q-29 0 -47 -32q-15 -27 -15 -58q0 -32 15 -60q17 -33 47 -33q28 0 46 34q16 29 16 59z" />
    <glyph glyph-name="guilsinglleft" unicode="&#x2039;" horiz-adv-x="248" 
d="M213 134h-104l-75 163l75 165h103l-73 -164z" />
    <glyph glyph-name="guilsinglright" unicode="&#x203a;" horiz-adv-x="248" 
d="M213 298l-73 -164h-105l74 163l-74 165h104z" />
    <glyph glyph-name="afii61352" unicode="&#x2116;" horiz-adv-x="988" 
d="M935 351q0 -79 -45 -136q-49 -60 -126 -60t-126 60q-45 55 -45 134t45 135q48 60 125 60q78 0 126 -59q46 -55 46 -134zM925 0h-321v89h321v-89zM542 0h-120l-241 480l3 -480h-126v720h122l239 -483l-2 483h125v-720zM843 350q0 39 -20 71q-23 37 -60 37q-36 0 -59 -37
q-19 -32 -19 -71t19 -71q23 -38 59 -38q37 0 60 37q20 33 20 72z" />
    <glyph glyph-name="trademark" unicode="&#x2122;" horiz-adv-x="896" 
d="M801 339h-94v221l-82 -221h-66l-85 221v-221h-95v382h131l82 -247l79 247h130v-382zM323 635h-88v-296h-95v296h-90v86h273v-86z" />
    <glyph glyph-name="periodcentered" unicode="&#xb7;" horiz-adv-x="247" 
d="M185 225l-124 -1v145h124v-144z" />
    <glyph glyph-name="periodcentered" unicode="&#x2219;" horiz-adv-x="247" 
d="M185 225l-124 -1v145h124v-144z" />
    </font>
</defs>
</svg>
